<svg xmlns:dc="http://purl.org/dc/elements/1.1/" xmlns:cc="http://creativecommons.org/ns#" xmlns:rdf="http://www.w3.org/1999/02/22-rdf-syntax-ns#" xmlns:svg="http://www.w3.org/2000/svg" xmlns="http://www.w3.org/2000/svg" xmlns:sodipodi="http://sodipodi.sourceforge.net/DTD/sodipodi-0.dtd" xmlns:inkscape="http://www.inkscape.org/namespaces/inkscape" viewBox="0 0 8.4666667 10.583333625" version="1.1" x="0px" y="0px"><svg:g><svg:path style="color:#000000;font-style:normal;font-variant:normal;font-weight:normal;font-stretch:normal;font-size:medium;line-height:normal;font-family:sans-serif;font-variant-ligatures:normal;font-variant-position:normal;font-variant-caps:normal;font-variant-numeric:normal;font-variant-alternates:normal;font-feature-settings:normal;text-indent:0;text-align:start;text-decoration:none;text-decoration-line:none;text-decoration-style:solid;text-decoration-color:#000000;letter-spacing:normal;word-spacing:normal;text-transform:none;writing-mode:lr-tb;direction:ltr;text-orientation:mixed;dominant-baseline:auto;baseline-shift:baseline;text-anchor:start;white-space:normal;shape-padding:0;clip-rule:nonzero;display:inline;overflow:visible;visibility:visible;opacity:1;isolation:auto;mix-blend-mode:normal;color-interpolation:sRGB;color-interpolation-filters:linearRGB;solid-color:#000000;solid-opacity:1;vector-effect:none;fill:#000000;fill-opacity:1;fill-rule:nonzero;stroke:none;stroke-width:0.52916664;stroke-linecap:round;stroke-linejoin:round;stroke-miterlimit:4;stroke-dasharray:none;stroke-dashoffset:0;stroke-opacity:1;color-rendering:auto;image-rendering:auto;shape-rendering:auto;text-rendering:auto;enable-background:accumulate" d="M 1.2722752,-1.1257294e-6 A 0.26460979,0.26460979 0 0 0 1.0087254,0.26561587 V 8.2031159 a 0.26460979,0.26460979 0 0 0 0.2635498,0.26355 H 7.192328 a 0.26460979,0.26460979 0 0 0 0.2656152,-0.26355 v -6.064746 a 0.26460979,0.26460979 0 0 0 -0.025321,-0.111105 0.26460979,0.26460979 0 0 0 -0.011369,-0.02222 0.26460979,0.26460979 0 0 0 -5.16e-4,-0.001 0.26460979,0.26460979 0 0 0 -0.00207,-0.0026 0.26460979,0.26460979 0 0 0 -0.010337,-0.01602 0.26460979,0.26460979 0 0 0 -0.00207,-0.0036 0.26460979,0.26460979 0 0 0 -0.010853,-0.01344 0.26460979,0.26460979 0 0 0 -0.0062,-0.0072 0.26460979,0.26460979 0 0 0 -0.0093,-0.01034 L 5.5066412,0.07803087 A 0.26460979,0.26460979 0 0 0 5.3190566,8.7427062e-7 h -0.00362 z M 1.537892,0.52916587 H 5.0534396 V 2.1383699 a 0.26460979,0.26460979 0 0 0 0.265617,0.264066 h 1.60972 v 5.535063 H 1.537892 Z M 5.5831243,0.90226987 6.551539,1.8727529 H 5.5831243 Z M 3.2488987,3.6602409 c -0.413507,0 -0.753959,0.342002 -0.753959,0.755509 0,0.413506 0.340452,0.753959 0.753959,0.753959 0.4135059,0 0.7560262,-0.340453 0.7560262,-0.753959 0,-0.413507 -0.3425203,-0.755509 -0.7560262,-0.755509 z m 1.6624308,0 a 0.26460979,0.26460979 0 0 0 -0.2325439,0.134359 l -1.3497885,2.336291 a 0.26515205,0.26515205 0 1 0 0.4588867,0.265617 L 5.1356051,4.0602159 A 0.26460979,0.26460979 0 0 0 4.9113295,3.6602409 Z m -1.6624308,0.529166 c 0.1275231,0 0.2268596,0.09882 0.2268596,0.226343 0,0.127523 -0.099338,0.224793 -0.2268596,0.224793 -0.1275239,0 -0.2247916,-0.09727 -0.2247924,-0.224793 0,-0.127524 0.097272,-0.226343 0.2247924,-0.226343 z m 1.9668051,0.884701 c -0.413507,0 -0.7539593,0.340453 -0.7539593,0.753959 0,0.413507 0.3404523,0.756026 0.7539593,0.756026 0.4135056,0 0.7539582,-0.342519 0.7539582,-0.756026 0,-0.413506 -0.3404526,-0.753959 -0.7539582,-0.753959 z m 0,0.529167 c 0.1275228,0 0.2268595,0.09727 0.2268595,0.224792 0,0.127524 -0.099337,0.226343 -0.2268595,0.226343 -0.1275242,0 -0.2247927,-0.09882 -0.2247927,-0.226343 0,-0.127523 0.097272,-0.224792 0.2247927,-0.224792 z"/></svg:g><text x="0" y="23.4666669" fill="#000000" font-size="5px" font-weight="bold" font-family="'Helvetica Neue', Helvetica, Arial-Unicode, Arial, Sans-serif">Created by Larea</text><text x="0" y="28.4666669" fill="#000000" font-size="5px" font-weight="bold" font-family="'Helvetica Neue', Helvetica, Arial-Unicode, Arial, Sans-serif">from the Noun Project</text></svg>